# xmcd
#
# Track frame offsets: 
#        150
#        12667
#        24725
#        35662
#        46487
#        56939
#        70107
#        82911
#        95820
#        110582
#        122522
#        134667
#        148377
#        161424
#        173273
#        186357
#        199377
#        210342
#
# Disc length: 2991 seconds
#
# Revision: 1
# Processed by: cddbd v1.5.2PL0 Copyright (c) Steve Scherf et al.
# Submitted via: ExactAudioCopyFreeDBPlugin 1.0
#
DISCID=0e0bad12
DTITLE=Frank Sinatra, Sammy Davis Junior, Dean Martin - The Rat Pack
DYEAR=1900
DGENRE=Swing
TTITLE0=Dean Martin - Everybody Loves Somebody
TTITLE1=Frank Sinatra - Besame Mucho
TTITLE2=Sammy Davis Jr. - Azure
TTITLE3=Frank Sinatra - Oh, What A Beautifull Morning
TTITLE4=Dean Martin - Memories Are Made Of This
TTITLE5=Frank Sinatra - People Will Say We're In Love
TTITLE6=Sammy Davis Jr. - The Way You Look Tonight
TTITLE7=Dean Martin - I Got The Sun In The Morning
TTITLE8=Frank Sinatra - You'll Never Know
TTITLE9=Dean Martin - I Still Get A Thrill
TTITLE10=Sammy Davis Jr. - When I'm Gone
TTITLE11=Frank Sinatra - In The Wee Smalll Hours Of The Morning
TTITLE12=Dean Martin - Solitaire
TTITLE13=Sammy Davis Jr. - You Are My Lucky Star
TTITLE14=Frank Sinatra - As Time Goes By
TTITLE15=Dean Martin - Which Way Did My Heart Go
TTITLE16=Sammy Davis Jr. - I Ain't Got Nobody
TTITLE17=Dean Martin - The Green Green Grass Of Home
EXTD=
EXTT0=
EXTT1=
EXTT2=
EXTT3=
EXTT4=
EXTT5=
EXTT6=
EXTT7=
EXTT8=
EXTT9=
EXTT10=
EXTT11=
EXTT12=
EXTT13=
EXTT14=
EXTT15=
EXTT16=
EXTT17=
PLAYORDER=
